<?xml version="1.0" standalone="no"?>
<!DOCTYPE svg PUBLIC "-//W3C//DTD SVG 20010904//EN"
 "http://www.w3.org/TR/2001/REC-SVG-20010904/DTD/svg10.dtd">
<svg version="1.0" xmlns="http://www.w3.org/2000/svg"
 width="512.000000pt" height="512.000000pt" viewBox="0 0 512.000000 512.000000"
 preserveAspectRatio="xMidYMid meet">

<g transform="translate(0.000000,512.000000) scale(0.100000,-0.100000)"
fill="#000000" stroke="none">
<path d="M454 4410 c-217 -32 -405 -212 -443 -424 -15 -83 -15 -2769 0 -2852
33 -184 187 -354 374 -411 57 -17 151 -18 2175 -18 2024 0 2118 1 2175 18 187
57 341 227 374 411 15 83 15 2769 0 2852 -33 181 -183 348 -369 411 -53 17
-143 18 -2145 19 -1149 1 -2113 -2 -2141 -6z m3932 -399 c-13 -21 -1720 -1368
-1754 -1383 -20 -10 -53 -17 -72 -17 -19 0 -52 7 -72 17 -34 15 -1741 1362
-1754 1383 -3 5 799 9 1826 9 1027 0 1829 -4 1826 -9z m-3067 -976 c485 -385
908 -716 940 -736 181 -110 423 -109 605 2 28 17 456 352 951 745 l900 714 3
-1281 c2 -1270 2 -1282 -18 -1314 -44 -70 135 -65 -2140 -65 -2275 0 -2096 -5
-2140 65 -20 32 -20 46 -20 1314 0 1246 1 1282 19 1269 10 -7 415 -328 900
-713z"/>
</g>
</svg>
