<?xml version="1.0" standalone="no"?>
<!DOCTYPE svg PUBLIC "-//W3C//DTD SVG 20010904//EN"
 "http://www.w3.org/TR/2001/REC-SVG-20010904/DTD/svg10.dtd">
<svg version="1.0" xmlns="http://www.w3.org/2000/svg"
 width="512.000000pt" height="512.000000pt" viewBox="0 0 512.000000 512.000000"
 preserveAspectRatio="xMidYMid meet">

<g transform="translate(0.000000,512.000000) scale(0.100000,-0.100000)"
fill="#000000" stroke="none">
<path d="M3770 5105 c-207 -35 -365 -102 -527 -224 -43 -32 -251 -233 -463
-445 l-385 -386 165 -165 164 -165 386 383 c212 211 405 397 430 414 153 103
336 149 496 124 171 -26 288 -84 404 -201 84 -85 141 -174 170 -268 81 -259
28 -497 -155 -705 -113 -128 -1135 -1140 -1185 -1174 -133 -90 -254 -127 -405
-127 -171 1 -297 43 -432 146 l-66 50 -166 -166 -165 -165 48 -43 c252 -224
598 -332 923 -287 185 25 349 85 500 184 74 49 188 158 711 679 454 452 639
644 683 706 414 580 215 1394 -419 1718 -221 113 -482 156 -712 117z"/>
<path d="M2080 3415 c-178 -28 -361 -103 -507 -208 -52 -38 -286 -266 -699
-679 -515 -516 -631 -638 -678 -709 -234 -358 -259 -801 -64 -1181 324 -634
1138 -833 1718 -419 58 41 209 184 480 456 l395 395 -165 165 -164 165 -386
-383 c-212 -211 -405 -397 -430 -414 -133 -89 -254 -128 -405 -127 -222 0
-410 89 -546 258 -106 131 -153 267 -153 441 0 183 58 329 189 478 116 131
1135 1141 1188 1176 126 85 254 125 407 124 165 0 293 -43 427 -145 l66 -50
166 166 165 165 -45 41 c-66 61 -196 145 -290 189 -203 95 -448 130 -669 96z"/>
</g>
</svg>
