<?xml version="1.0" standalone="no"?>
<!DOCTYPE svg PUBLIC "-//W3C//DTD SVG 20010904//EN"
 "http://www.w3.org/TR/2001/REC-SVG-20010904/DTD/svg10.dtd">
<svg version="1.0" xmlns="http://www.w3.org/2000/svg"
 width="512.000000pt" height="512.000000pt" viewBox="0 0 512.000000 512.000000"
 preserveAspectRatio="xMidYMid meet">

<g transform="translate(0.000000,512.000000) scale(0.100000,-0.100000)"
fill="#000000" stroke="none">
<path d="M2330 5110 c-494 -48 -950 -230 -1350 -538 -195 -150 -448 -432 -594
-662 -63 -99 -186 -351 -230 -471 -49 -134 -102 -340 -128 -499 -31 -195 -31
-565 0 -760 45 -276 116 -498 237 -745 132 -269 269 -460 489 -681 221 -220
412 -357 681 -489 247 -121 469 -192 745 -237 195 -31 565 -31 760 0 276 45
498 116 745 237 269 132 460 269 681 489 220 221 357 412 489 681 88 179 132
296 180 476 63 240 78 371 78 649 0 278 -15 409 -78 649 -48 180 -92 297 -180
476 -132 269 -269 460 -489 681 -221 220 -412 357 -681 489 -246 121 -474 193
-740 235 -147 23 -475 34 -615 20z m288 -209 c38 -20 104 -84 139 -136 69
-102 157 -315 219 -527 38 -133 109 -466 101 -475 -8 -8 -78 -22 -199 -40
-154 -22 -482 -22 -636 0 -121 18 -191 32 -199 40 -8 9 63 342 101 475 86 299
190 516 293 613 73 70 118 82 181 50z m-473 -109 c-103 -176 -217 -526 -276
-849 -15 -81 -27 -123 -35 -123 -45 0 -355 138 -476 212 l-58 35 80 120 c158
238 352 430 562 555 61 36 213 108 230 108 4 0 -8 -26 -27 -58z m924 7 c245
-114 487 -334 671 -612 l80 -120 -58 -35 c-121 -74 -431 -212 -476 -212 -8 0
-20 42 -35 123 -59 323 -173 673 -277 850 -40 69 -41 69 95 6z m-1638 -219
c-93 -103 -179 -216 -246 -324 l-47 -76 -37 29 c-20 16 -54 45 -76 65 l-40 36
45 41 c57 52 174 139 260 195 59 38 209 123 218 124 2 0 -33 -40 -77 -90z
m2347 -2 c91 -55 246 -168 307 -223 l50 -45 -40 -36 c-22 -20 -56 -49 -76 -65
l-37 -29 -47 76 c-68 108 -153 221 -247 325 l-81 91 52 -27 c29 -14 82 -44
119 -67z m-2821 -511 l82 -68 -26 -57 c-155 -337 -259 -768 -282 -1162 l-6
-115 -263 -3 -262 -2 4 22 c3 13 8 59 11 103 34 452 241 939 555 1307 62 73
65 75 85 59 11 -9 57 -47 102 -84z m3399 18 c112 -130 236 -319 318 -482 120
-241 212 -565 231 -818 3 -44 8 -90 11 -103 l4 -22 -262 2 -263 3 -6 115 c-23
394 -127 825 -282 1162 l-26 57 102 85 c56 46 104 82 108 78 3 -4 32 -38 65
-77z m-3085 -236 c133 -78 408 -201 502 -225 16 -3 31 -13 34 -20 3 -7 0 -51
-6 -96 -21 -162 -41 -426 -48 -635 l-6 -213 -409 0 -408 0 0 68 c0 87 25 297
51 437 38 207 99 418 169 585 17 41 36 87 42 103 5 15 14 27 19 27 4 0 32 -14
60 -31z m2657 4 c6 -16 25 -62 42 -103 70 -167 131 -378 169 -585 26 -140 51
-350 51 -437 l0 -68 -408 0 -409 0 -6 213 c-7 209 -27 473 -48 635 -6 45 -9
89 -6 96 3 7 18 17 34 20 95 24 389 157 508 230 52 32 61 31 73 -1z m-1786
-317 c278 -49 659 -43 912 14 27 6 51 9 53 6 15 -15 51 -435 60 -691 l6 -205
-613 0 -613 0 7 208 c7 232 30 517 52 660 4 29 9 33 27 28 12 -3 61 -12 109
-20z m-1411 -1196 c23 -394 127 -825 282 -1162 l26 -57 -100 -83 c-55 -46
-104 -81 -107 -78 -4 3 -34 37 -67 75 -112 129 -236 317 -319 482 -120 241
-212 565 -231 818 -3 44 -8 90 -11 103 l-4 22 262 -2 263 -3 6 -115z m1022
-87 c6 -203 29 -503 47 -633 13 -88 12 -110 -2 -115 -166 -55 -392 -156 -517
-228 -34 -21 -66 -37 -71 -37 -4 0 -13 12 -18 28 -6 15 -25 61 -42 102 -70
167 -131 378 -169 585 -26 140 -51 350 -51 438 l0 67 408 0 409 0 6 -207z
m1414 2 c-9 -255 -45 -676 -60 -691 -2 -2 -35 2 -73 10 -273 56 -675 56 -948
0 -38 -8 -71 -12 -73 -10 -15 15 -51 436 -60 691 l-6 205 613 0 613 0 -6 -205z
m1023 138 c0 -88 -25 -298 -51 -438 -38 -207 -99 -418 -169 -585 -17 -41 -36
-87 -42 -102 -5 -16 -14 -28 -19 -28 -4 0 -32 14 -60 31 -133 78 -408 201
-502 225 -16 3 -31 13 -34 20 -3 7 0 51 6 96 21 162 41 426 48 636 l6 212 409
0 408 0 0 -67z m726 45 c-3 -13 -8 -59 -11 -103 -24 -318 -142 -679 -318 -975
-90 -151 -288 -411 -306 -402 -3 1 -50 39 -103 83 l-97 80 26 57 c154 335 262
777 279 1147 3 61 7 116 10 123 2 9 64 12 264 12 l260 0 -4 -22z m-2033 -1043
c115 -16 185 -30 194 -38 8 -9 -63 -339 -101 -474 -61 -213 -149 -426 -219
-528 -56 -83 -147 -155 -197 -155 -50 0 -141 72 -197 155 -70 102 -158 315
-219 528 -38 135 -109 465 -101 474 13 12 229 46 362 57 93 7 369 -4 478 -19z
m-1014 -217 c59 -324 173 -674 277 -851 40 -69 41 -69 -95 -6 -245 114 -487
334 -671 612 l-80 120 58 35 c124 76 425 210 473 212 12 0 20 -27 38 -122z
m1503 96 c88 -31 311 -137 390 -186 l58 -35 -80 -120 c-184 -278 -426 -498
-671 -612 -136 -63 -135 -63 -95 6 104 177 218 527 277 851 15 80 27 122 35
122 7 0 46 -12 86 -26z m-2187 -410 c68 -108 153 -221 247 -325 l81 -91 -54
28 c-74 37 -200 116 -284 177 -86 63 -185 147 -185 158 0 6 139 128 146 129 1
0 23 -34 49 -76z m2910 -18 l40 -36 -50 -46 c-94 -86 -301 -226 -426 -289
l-52 -27 81 91 c94 104 179 217 247 325 l47 76 37 -29 c20 -16 54 -45 76 -65z"/>
</g>
</svg>
