<?xml version="1.0" standalone="no"?>
<!DOCTYPE svg PUBLIC "-//W3C//DTD SVG 20010904//EN"
 "http://www.w3.org/TR/2001/REC-SVG-20010904/DTD/svg10.dtd">
<svg version="1.0" xmlns="http://www.w3.org/2000/svg"
 width="512.000000pt" height="512.000000pt" viewBox="0 0 512.000000 512.000000"
 preserveAspectRatio="xMidYMid meet">

<g transform="translate(0.000000,512.000000) scale(0.100000,-0.100000)"
fill="#000000" stroke="none">
<path d="M2370 5106 c-308 -45 -575 -174 -793 -385 -370 -356 -518 -871 -396
-1366 90 -360 322 -676 639 -871 221 -136 471 -205 740 -205 230 0 414 42 615
140 499 244 806 731 805 1278 -1 492 -246 935 -666 1205 -131 84 -339 165
-499 193 -126 23 -329 27 -445 11z m330 -291 c136 -13 318 -76 444 -154 634
-393 731 -1261 198 -1773 -217 -208 -487 -318 -782 -318 -296 0 -565 110 -784
320 -386 371 -455 968 -164 1417 191 293 502 482 844 512 87 8 113 8 244 -4z"/>
<path d="M1344 2129 c-373 -28 -723 -215 -955 -510 -114 -143 -202 -318 -245
-482 -43 -166 -46 -210 -51 -679 l-5 -458 2472 0 2472 0 -5 458 c-5 469 -8
513 -51 679 -70 267 -241 526 -467 704 -216 171 -464 267 -750 289 -147 11
-2266 11 -2415 -1z m2591 -322 c376 -103 662 -389 762 -762 26 -97 27 -110 31
-427 l4 -328 -2172 0 -2172 0 4 328 c4 317 5 330 31 427 107 396 416 689 819
774 90 19 136 20 1343 18 l1250 -2 100 -28z"/>
</g>
</svg>
